<svg xmlns="http://www.w3.org/2000/svg" viewBox="0 0 512 512">
  <defs>
    <linearGradient id="g1" x1="0%" y1="0%" x2="100%" y2="100%">
      <stop offset="0%" style="stop-color:#2563eb;stop-opacity:1" />
      <stop offset="100%" style="stop-color:#0070f3;stop-opacity:1" />
    </linearGradient>
  </defs>
  <rect width="512" height="512" rx="100" fill="url(#g1)" />
  <!-- Shield/Checkmark Combo -->
  <path d="M256 64c-60 0-110 20-130 50v140c0 90 50 170 130 210c80-40 130-120 130-210V114c-20-30-70-50-130-50z" fill="white" opacity="0.2"/>
  <path d="M256 84c-50 0-100 20-110 40v130c0 80 40 150 110 190c70-40 110-110 110-190V124c-10-20-60-40-110-40z" fill="white"/>
  <!-- Checkmark -->
  <path d="M180 250l60 60 110 -110" stroke="#0070f3" stroke-width="40" fill="none" stroke-linecap="round" stroke-linejoin="round"/>
</svg>
